<?xml version="1.0" encoding="UTF-8"?>
<svg width="56px" height="56px" viewBox="0 0 56 56" version="1.1" xmlns="http://www.w3.org/2000/svg" xmlns:xlink="http://www.w3.org/1999/xlink">
    <!-- Generator: Sketch 54.1 (76490) - https://sketchapp.com -->
    <title>Untitled</title>
    <desc>Created with Sketch.</desc>
    <g id="Page-1" stroke="none" stroke-width="1" fill="none" fill-rule="evenodd">
        <g id="dribbble" fill="#000000" fill-rule="nonzero">
            <path d="M28,0 C12.5607097,0 0,12.5607097 0,28 C0,43.4392903 12.5607097,56 28,56 C43.4392903,56 56,43.4392903 56,28 C56,12.5607097 43.4392903,0 28,0 Z M46.5127419,12.9122903 C49.8437258,16.982 51.8608548,22.1655 51.9134677,27.8104355 C51.1249516,27.6436774 43.2178871,26.0398871 35.2600161,27.0406613 C34.6105968,25.4553871 33.9976452,24.0608065 33.1580968,22.3423065 C42.0007903,18.732 46.0085161,13.5943387 46.5127419,12.9122903 L46.5127419,12.9122903 Z M43.8539839,10.1466129 C43.4238226,10.7593387 39.8236774,15.5982581 31.3193548,18.7858548 C27.4002581,11.5853387 23.0565323,5.6701129 22.3954839,4.78495161 C29.979871,2.95670968 37.9722903,4.92833871 43.8539839,10.1466129 L43.8539839,10.1466129 Z M17.8320484,6.39258065 C18.4626129,7.25730645 22.7363387,13.179871 26.699129,20.2242419 C15.5118871,23.1950645 5.65848387,23.1522742 4.58883871,23.1381613 C6.13967742,15.7166935 11.1410645,9.54856452 17.8320484,6.39258065 Z M4.08370968,28.0364677 C4.08370968,27.7919194 4.08856452,27.5485 4.09590323,27.3056452 C5.14229032,27.3270968 16.7320323,27.4764677 28.6756129,23.9020645 C29.3602581,25.242 30.0143065,26.6021452 30.6146129,27.9608226 C21.9663387,30.3967097 14.1088387,37.3912903 10.2320806,44.027629 C6.41222581,39.7876613 4.08370968,34.1791935 4.08370968,28.0364677 Z M13.3199839,46.9040645 C15.8181935,41.7971129 22.5981452,35.2048065 32.2401935,31.9154839 C35.5979355,40.6409839 36.9865323,47.9537258 37.3421774,50.0520323 C29.6521129,53.3276935 20.405,52.4289839 13.3199839,46.9040645 L13.3199839,46.9040645 Z M41.3628871,47.8625 C41.1177742,46.407629 39.8447903,39.4063871 36.7166935,30.8103871 C44.2112097,29.6106774 50.7957258,31.5745161 51.6139355,31.8327258 C50.5479032,38.4873548 46.7282742,44.2344677 41.3628871,47.8625 Z" id="Shape"></path>
        </g>
    </g>
</svg>